<svg xmlns="http://www.w3.org/2000/svg" width="257.4" height="35" viewBox="0 0 257.4 35"><rect class="svg__rect" x="0" y="0" width="127.25" height="35" fill="#030302"/><rect class="svg__rect" x="125.25" y="0" width="132.15" height="35" fill="#FFCB00"/><path class="svg__text" d="M15.70 22L14.22 22L14.22 13.47L17.48 13.47Q18.91 13.47 19.75 14.21Q20.59 14.96 20.59 16.18L20.59 16.18Q20.59 17.44 19.77 18.13Q18.95 18.83 17.46 18.83L17.46 18.83L15.70 18.83L15.70 22ZM15.70 14.66L15.70 17.64L17.48 17.64Q18.27 17.64 18.69 17.27Q19.10 16.90 19.10 16.19L19.10 16.19Q19.10 15.50 18.68 15.09Q18.26 14.68 17.52 14.66L17.52 14.66L15.70 14.66ZM24.61 18.00L24.61 18.00L24.61 17.52Q24.61 16.28 25.05 15.32Q25.49 14.37 26.30 13.86Q27.10 13.35 28.14 13.35Q29.19 13.35 29.99 13.85Q30.80 14.35 31.24 15.29Q31.68 16.23 31.68 17.48L31.68 17.48L31.68 17.96Q31.68 19.21 31.25 20.16Q30.82 21.10 30.01 21.61Q29.21 22.12 28.16 22.12L28.16 22.12Q27.12 22.12 26.31 21.61Q25.50 21.10 25.05 20.17Q24.61 19.23 24.61 18.00ZM26.09 17.46L26.09 17.96Q26.09 19.36 26.64 20.13Q27.18 20.90 28.16 20.90L28.16 20.90Q29.14 20.90 29.67 20.15Q30.20 19.40 30.20 17.96L30.20 17.96L30.20 17.51Q30.20 16.09 29.67 15.34Q29.13 14.58 28.14 14.58L28.14 14.58Q27.18 14.58 26.64 15.33Q26.10 16.09 26.09 17.46L26.09 17.46ZM37.53 22L35.56 13.47L37.03 13.47L38.36 19.88L39.99 13.47L41.23 13.47L42.84 19.89L44.15 13.47L45.62 13.47L43.65 22L42.24 22L40.61 15.77L38.96 22L37.53 22ZM55.27 22L49.70 22L49.70 13.47L55.23 13.47L55.23 14.66L51.18 14.66L51.18 17.02L54.68 17.02L54.68 18.19L51.18 18.19L51.18 20.82L55.27 20.82L55.27 22ZM60.95 22L59.47 22L59.47 13.47L62.47 13.47Q63.95 13.47 64.75 14.13Q65.55 14.79 65.55 16.05L65.55 16.05Q65.55 16.90 65.14 17.48Q64.72 18.06 63.99 18.37L63.99 18.37L65.90 21.92L65.90 22L64.31 22L62.60 18.71L60.95 18.71L60.95 22ZM60.95 14.66L60.95 17.52L62.48 17.52Q63.23 17.52 63.65 17.15Q64.07 16.77 64.07 16.11L64.07 16.11Q64.07 15.43 63.68 15.05Q63.29 14.68 62.52 14.66L62.52 14.66L60.95 14.66ZM75.52 22L69.95 22L69.95 13.47L75.48 13.47L75.48 14.66L71.43 14.66L71.43 17.02L74.93 17.02L74.93 18.19L71.43 18.19L71.43 20.82L75.52 20.82L75.52 22ZM82.17 22L79.72 22L79.72 13.47L82.24 13.47Q83.37 13.47 84.25 13.97Q85.12 14.48 85.60 15.40Q86.08 16.33 86.08 17.52L86.08 17.52L86.08 17.95Q86.08 19.16 85.60 20.08Q85.12 21.00 84.22 21.50Q83.33 22 82.17 22L82.17 22ZM81.20 14.66L81.20 20.82L82.17 20.82Q83.33 20.82 83.96 20.09Q84.58 19.36 84.59 17.99L84.59 17.99L84.59 17.52Q84.59 16.13 83.99 15.40Q83.39 14.66 82.24 14.66L82.24 14.66L81.20 14.66ZM99.64 22L96.52 22L96.52 13.47L99.45 13.47Q100.89 13.47 101.65 14.05Q102.41 14.63 102.41 15.78L102.41 15.78Q102.41 16.36 102.09 16.83Q101.77 17.30 101.16 17.56L101.16 17.56Q101.86 17.75 102.23 18.26Q102.61 18.78 102.61 19.51L102.61 19.51Q102.61 20.71 101.84 21.36Q101.07 22 99.64 22L99.64 22ZM98.01 18.15L98.01 20.82L99.65 20.82Q100.35 20.82 100.74 20.47Q101.14 20.13 101.14 19.51L101.14 19.51Q101.14 18.18 99.78 18.15L99.78 18.15L98.01 18.15ZM98.01 14.66L98.01 17.06L99.46 17.06Q100.15 17.06 100.54 16.75Q100.93 16.43 100.93 15.86L100.93 15.86Q100.93 15.23 100.57 14.95Q100.21 14.66 99.45 14.66L99.45 14.66L98.01 14.66ZM109.12 18.86L106.26 13.47L107.90 13.47L109.87 17.51L111.83 13.47L113.47 13.47L110.61 18.86L110.61 22L109.12 22L109.12 18.86Z" fill="#FFFFFF"/><path class="svg__text" d="M138.85 21.24L138.85 21.24L139.63 19.49Q140.19 19.86 140.94 20.09Q141.68 20.32 142.40 20.32L142.40 20.32Q143.77 20.32 143.77 19.64L143.77 19.64Q143.77 19.28 143.38 19.11Q142.99 18.93 142.13 18.74L142.13 18.74Q141.18 18.53 140.54 18.30Q139.91 18.06 139.45 17.55Q139.00 17.03 139.00 16.16L139.00 16.16Q139.00 15.39 139.42 14.77Q139.84 14.15 140.67 13.79Q141.51 13.43 142.71 13.43L142.71 13.43Q143.54 13.43 144.35 13.62Q145.15 13.80 145.77 14.17L145.77 14.17L145.03 15.93Q143.83 15.28 142.70 15.28L142.70 15.28Q141.99 15.28 141.67 15.49Q141.35 15.70 141.35 16.04L141.35 16.04Q141.35 16.37 141.73 16.54Q142.12 16.71 142.97 16.89L142.97 16.89Q143.93 17.10 144.56 17.33Q145.19 17.56 145.65 18.07Q146.11 18.58 146.11 19.46L146.11 19.46Q146.11 20.21 145.69 20.83Q145.27 21.44 144.43 21.80Q143.59 22.17 142.39 22.17L142.39 22.17Q141.37 22.17 140.41 21.92Q139.45 21.67 138.85 21.24ZM152.11 22L149.68 22L153.39 13.60L155.73 13.60L159.45 22L156.98 22L156.32 20.37L152.77 20.37L152.11 22ZM154.54 15.93L153.46 18.61L155.62 18.61L154.54 15.93ZM165.68 22L162.96 13.60L165.41 13.60L167.09 18.96L168.87 13.60L171.06 13.60L172.75 19.01L174.51 13.60L176.78 13.60L174.06 22L171.51 22L169.91 16.89L168.22 22L165.68 22ZM180.86 17.80L180.86 17.80Q180.86 16.55 181.47 15.55Q182.07 14.56 183.13 14.00Q184.20 13.43 185.53 13.43L185.53 13.43Q186.86 13.43 187.92 14.00Q188.98 14.56 189.59 15.55Q190.20 16.55 190.20 17.80L190.20 17.80Q190.20 19.05 189.59 20.04Q188.98 21.04 187.92 21.60Q186.86 22.17 185.53 22.17L185.53 22.17Q184.20 22.17 183.13 21.60Q182.07 21.04 181.47 20.04Q180.86 19.05 180.86 17.80ZM183.26 17.80L183.26 17.80Q183.26 18.51 183.56 19.05Q183.86 19.60 184.38 19.90Q184.89 20.20 185.53 20.20L185.53 20.20Q186.17 20.20 186.68 19.90Q187.20 19.60 187.50 19.05Q187.80 18.51 187.80 17.80L187.80 17.80Q187.80 17.09 187.50 16.54Q187.20 16 186.68 15.70Q186.17 15.40 185.53 15.40L185.53 15.40Q184.89 15.40 184.38 15.70Q183.86 16 183.56 16.54Q183.26 17.09 183.26 17.80ZM208.29 22L201.90 22L201.90 13.60L204.28 13.60L204.28 20.11L208.29 20.11L208.29 22ZM214.12 22L211.70 22L215.40 13.60L217.75 13.60L221.46 22L219.00 22L218.33 20.37L214.78 20.37L214.12 22ZM216.56 15.93L215.47 18.61L217.64 18.61L216.56 15.93ZM230.16 22L225.62 22L225.62 13.60L229.92 13.60Q231.52 13.60 232.36 14.19Q233.21 14.79 233.21 15.79L233.21 15.79Q233.21 16.39 232.91 16.87Q232.61 17.34 232.07 17.62L232.07 17.62Q232.80 17.87 233.20 18.41Q233.61 18.94 233.61 19.70L233.61 19.70Q233.61 20.80 232.72 21.40Q231.83 22 230.16 22L230.16 22ZM227.97 18.58L227.97 20.28L229.97 20.28Q231.21 20.28 231.21 19.43L231.21 19.43Q231.21 18.58 229.97 18.58L229.97 18.58L227.97 18.58ZM227.97 15.31L227.97 16.94L229.60 16.94Q230.80 16.94 230.80 16.12L230.80 16.12Q230.80 15.31 229.60 15.31L229.60 15.31L227.97 15.31ZM237.74 21.24L237.74 21.24L238.52 19.49Q239.08 19.86 239.83 20.09Q240.57 20.32 241.29 20.32L241.29 20.32Q242.66 20.32 242.66 19.64L242.66 19.64Q242.66 19.28 242.27 19.11Q241.88 18.93 241.02 18.74L241.02 18.74Q240.07 18.53 239.43 18.30Q238.80 18.06 238.34 17.55Q237.89 17.03 237.89 16.16L237.89 16.16Q237.89 15.39 238.31 14.77Q238.72 14.15 239.56 13.79Q240.39 13.43 241.60 13.43L241.60 13.43Q242.43 13.43 243.23 13.62Q244.04 13.80 244.65 14.17L244.65 14.17L243.92 15.93Q242.72 15.28 241.59 15.28L241.59 15.28Q240.88 15.28 240.56 15.49Q240.24 15.70 240.24 16.04L240.24 16.04Q240.24 16.37 240.62 16.54Q241.00 16.71 241.85 16.89L241.85 16.89Q242.81 17.10 243.44 17.33Q244.07 17.56 244.54 18.07Q245.00 18.58 245.00 19.46L245.00 19.46Q245.00 20.21 244.58 20.83Q244.16 21.44 243.32 21.80Q242.48 22.17 241.28 22.17L241.28 22.17Q240.26 22.17 239.30 21.92Q238.34 21.67 237.74 21.24Z" fill="#100E0E" x="138.25"/></svg>