<svg xmlns="http://www.w3.org/2000/svg" width="218.2" height="35" viewBox="0 0 218.2 35"><rect class="svg__rect" x="0" y="0" width="64.89" height="35" fill="#000000"/><rect class="svg__rect" x="62.89" y="0" width="155.31" height="35" fill="#3E42B9"/><path class="svg__text" d="M14.08 19.16L14.08 19.16L14.08 13.47L15.56 13.47L15.56 19.18Q15.56 20.03 15.99 20.48Q16.43 20.93 17.27 20.93L17.27 20.93Q18.98 20.93 18.98 19.13L18.98 19.13L18.98 13.47L20.46 13.47L20.46 19.17Q20.46 20.53 19.59 21.32Q18.72 22.12 17.27 22.12L17.27 22.12Q15.81 22.12 14.94 21.33Q14.08 20.55 14.08 19.16ZM24.59 19.42L24.59 19.42L26.08 19.42Q26.08 20.15 26.56 20.55Q27.04 20.95 27.93 20.95L27.93 20.95Q28.71 20.95 29.10 20.63Q29.49 20.32 29.49 19.80L29.49 19.80Q29.49 19.24 29.09 18.94Q28.70 18.63 27.66 18.32Q26.63 18.01 26.02 17.63L26.02 17.63Q24.86 16.90 24.86 15.72L24.86 15.72Q24.86 14.69 25.70 14.02Q26.54 13.35 27.88 13.35L27.88 13.35Q28.77 13.35 29.47 13.68Q30.17 14.01 30.56 14.61Q30.96 15.22 30.96 15.96L30.96 15.96L29.49 15.96Q29.49 15.29 29.07 14.91Q28.65 14.54 27.87 14.54L27.87 14.54Q27.14 14.54 26.74 14.85Q26.34 15.16 26.34 15.71L26.34 15.71Q26.34 16.18 26.77 16.50Q27.21 16.81 28.20 17.10Q29.20 17.40 29.80 17.78Q30.41 18.16 30.69 18.65Q30.97 19.13 30.97 19.79L30.97 19.79Q30.97 20.86 30.15 21.49Q29.33 22.12 27.93 22.12L27.93 22.12Q27.01 22.12 26.23 21.77Q25.46 21.43 25.02 20.83Q24.59 20.22 24.59 19.42ZM40.84 22L35.26 22L35.26 13.47L40.80 13.47L40.80 14.66L36.74 14.66L36.74 17.02L40.24 17.02L40.24 18.19L36.74 18.19L36.74 20.82L40.84 20.82L40.84 22ZM44.60 19.42L44.60 19.42L46.08 19.42Q46.08 20.15 46.56 20.55Q47.04 20.95 47.94 20.95L47.94 20.95Q48.71 20.95 49.10 20.63Q49.49 20.32 49.49 19.80L49.49 19.80Q49.49 19.24 49.10 18.94Q48.70 18.63 47.67 18.32Q46.64 18.01 46.03 17.63L46.03 17.63Q44.86 16.90 44.86 15.72L44.86 15.72Q44.86 14.69 45.70 14.02Q46.54 13.35 47.89 13.35L47.89 13.35Q48.78 13.35 49.47 13.68Q50.17 14.01 50.57 14.61Q50.97 15.22 50.97 15.96L50.97 15.96L49.49 15.96Q49.49 15.29 49.07 14.91Q48.65 14.54 47.87 14.54L47.87 14.54Q47.15 14.54 46.75 14.85Q46.34 15.16 46.34 15.71L46.34 15.71Q46.34 16.18 46.78 16.50Q47.21 16.81 48.21 17.10Q49.20 17.40 49.81 17.78Q50.41 18.16 50.69 18.65Q50.97 19.13 50.97 19.79L50.97 19.79Q50.97 20.86 50.16 21.49Q49.34 22.12 47.94 22.12L47.94 22.12Q47.01 22.12 46.24 21.77Q45.46 21.43 45.03 20.83Q44.60 20.22 44.60 19.42Z" fill="#FFFFFF"/><path class="svg__text" d="M76.65 17.80L76.65 17.80Q76.65 16.54 77.25 15.54Q77.85 14.55 78.91 13.99Q79.98 13.43 81.33 13.43L81.33 13.43Q82.50 13.43 83.44 13.83Q84.38 14.22 85.00 14.97L85.00 14.97L83.49 16.33Q82.64 15.40 81.47 15.40L81.47 15.40Q81.45 15.40 81.45 15.40L81.45 15.40Q80.37 15.40 79.71 16.06Q79.05 16.71 79.05 17.80L79.05 17.80Q79.05 18.50 79.35 19.04Q79.65 19.59 80.19 19.89Q80.73 20.20 81.43 20.20L81.43 20.20Q82.11 20.20 82.71 19.93L82.71 19.93L82.71 17.62L84.81 17.62L84.81 21.10Q84.09 21.61 83.15 21.89Q82.22 22.17 81.28 22.17L81.28 22.17Q79.96 22.17 78.90 21.61Q77.85 21.05 77.25 20.05Q76.65 19.06 76.65 17.80ZM89.37 17.80L89.37 17.80Q89.37 16.55 89.97 15.55Q90.58 14.56 91.64 14.00Q92.70 13.43 94.03 13.43L94.03 13.43Q95.36 13.43 96.43 14.00Q97.49 14.56 98.10 15.55Q98.70 16.55 98.70 17.80L98.70 17.80Q98.70 19.05 98.10 20.04Q97.49 21.04 96.43 21.60Q95.37 22.17 94.03 22.17L94.03 22.17Q92.70 22.17 91.64 21.60Q90.58 21.04 89.97 20.04Q89.37 19.05 89.37 17.80ZM91.77 17.80L91.77 17.80Q91.77 18.51 92.07 19.05Q92.37 19.60 92.89 19.90Q93.40 20.20 94.03 20.20L94.03 20.20Q94.67 20.20 95.19 19.90Q95.70 19.60 96.00 19.05Q96.30 18.51 96.30 17.80L96.30 17.80Q96.30 17.09 96.00 16.54Q95.70 16 95.19 15.70Q94.67 15.40 94.03 15.40L94.03 15.40Q93.40 15.40 92.88 15.70Q92.37 16 92.07 16.54Q91.77 17.09 91.77 17.80ZM103.01 17.80L103.01 17.80Q103.01 16.55 103.61 15.55Q104.21 14.56 105.28 14.00Q106.34 13.43 107.67 13.43L107.67 13.43Q109.00 13.43 110.06 14.00Q111.13 14.56 111.73 15.55Q112.34 16.55 112.34 17.80L112.34 17.80Q112.34 19.05 111.73 20.04Q111.13 21.04 110.07 21.60Q109.01 22.17 107.67 22.17L107.67 22.17Q106.34 22.17 105.28 21.60Q104.21 21.04 103.61 20.04Q103.01 19.05 103.01 17.80ZM105.40 17.80L105.40 17.80Q105.40 18.51 105.70 19.05Q106.01 19.60 106.52 19.90Q107.04 20.20 107.67 20.20L107.67 20.20Q108.31 20.20 108.82 19.90Q109.34 19.60 109.64 19.05Q109.94 18.51 109.94 17.80L109.94 17.80Q109.94 17.09 109.64 16.54Q109.34 16 108.82 15.70Q108.31 15.40 107.67 15.40L107.67 15.40Q107.03 15.40 106.52 15.70Q106.01 16 105.70 16.54Q105.40 17.09 105.40 17.80ZM116.64 17.80L116.64 17.80Q116.64 16.54 117.24 15.54Q117.84 14.55 118.91 13.99Q119.97 13.43 121.32 13.43L121.32 13.43Q122.49 13.43 123.43 13.83Q124.37 14.22 124.99 14.97L124.99 14.97L123.48 16.33Q122.63 15.40 121.46 15.40L121.46 15.40Q121.45 15.40 121.44 15.40L121.44 15.40Q120.36 15.40 119.70 16.06Q119.04 16.71 119.04 17.80L119.04 17.80Q119.04 18.50 119.34 19.04Q119.64 19.59 120.18 19.89Q120.72 20.20 121.42 20.20L121.42 20.20Q122.10 20.20 122.70 19.93L122.70 19.93L122.70 17.62L124.80 17.62L124.80 21.10Q124.08 21.61 123.14 21.89Q122.21 22.17 121.27 22.17L121.27 22.17Q119.95 22.17 118.89 21.61Q117.84 21.05 117.24 20.05Q116.64 19.06 116.64 17.80ZM136.18 22L129.79 22L129.79 13.60L132.17 13.60L132.17 20.11L136.18 20.11L136.18 22ZM147.34 22L140.59 22L140.59 13.60L147.19 13.60L147.19 15.44L142.95 15.44L142.95 16.85L146.68 16.85L146.68 18.63L142.95 18.63L142.95 20.17L147.34 20.17L147.34 22ZM161.31 22L159.11 22L159.11 13.60L161.07 13.60L164.03 18.45L166.91 13.60L168.86 13.60L168.88 22L166.70 22L166.68 17.55L164.52 21.17L163.46 21.17L161.31 17.67L161.31 22ZM175.46 22L173.04 22L176.75 13.60L179.09 13.60L182.80 22L180.34 22L179.68 20.37L176.12 20.37L175.46 22ZM177.90 15.93L176.82 18.61L178.98 18.61L177.90 15.93ZM189.34 22L186.96 22L186.96 13.60L190.80 13.60Q191.94 13.60 192.78 13.98Q193.62 14.35 194.08 15.06Q194.53 15.76 194.53 16.71L194.53 16.71Q194.53 17.66 194.08 18.35Q193.62 19.05 192.78 19.42Q191.94 19.80 190.80 19.80L190.80 19.80L189.34 19.80L189.34 22ZM189.34 15.47L189.34 17.93L190.66 17.93Q191.39 17.93 191.76 17.61Q192.13 17.29 192.13 16.71L192.13 16.71Q192.13 16.12 191.76 15.80Q191.39 15.47 190.66 15.47L190.66 15.47L189.34 15.47ZM198.70 21.24L198.70 21.24L199.48 19.49Q200.04 19.86 200.79 20.09Q201.53 20.32 202.25 20.32L202.25 20.32Q203.62 20.32 203.62 19.64L203.62 19.64Q203.62 19.28 203.23 19.11Q202.84 18.93 201.98 18.74L201.98 18.74Q201.03 18.53 200.39 18.30Q199.76 18.06 199.30 17.55Q198.85 17.03 198.85 16.16L198.85 16.16Q198.85 15.39 199.27 14.77Q199.69 14.15 200.52 13.79Q201.36 13.43 202.56 13.43L202.56 13.43Q203.39 13.43 204.19 13.62Q205.00 13.80 205.61 14.17L205.61 14.17L204.88 15.93Q203.68 15.28 202.55 15.28L202.55 15.28Q201.84 15.28 201.52 15.49Q201.20 15.70 201.20 16.04L201.20 16.04Q201.20 16.37 201.58 16.54Q201.96 16.71 202.81 16.89L202.81 16.89Q203.78 17.10 204.41 17.33Q205.03 17.56 205.50 18.07Q205.96 18.58 205.96 19.46L205.96 19.46Q205.96 20.21 205.54 20.83Q205.12 21.44 204.28 21.80Q203.44 22.17 202.24 22.17L202.24 22.17Q201.22 22.17 200.26 21.92Q199.30 21.67 198.70 21.24Z" fill="#FFFFFF" x="75.89"/></svg>